<svg width="18" height="18" viewBox="0 0 18 18" fill="none" xmlns="http://www.w3.org/2000/svg">
<path d="M0.956055 9.81836C0.44043 9.81836 0 9.38867 0 8.8623C0 8.33594 0.44043 7.89551 0.956055 7.89551H7.90625V0.956055C7.90625 0.44043 8.33594 0 8.8623 0C9.38867 0 9.8291 0.44043 9.8291 0.956055V7.89551H16.7686C17.2842 7.89551 17.7246 8.33594 17.7246 8.8623C17.7246 9.38867 17.2842 9.81836 16.7686 9.81836H9.8291V16.7686C9.8291 17.2842 9.38867 17.7246 8.8623 17.7246C8.33594 17.7246 7.90625 17.2842 7.90625 16.7686V9.81836H0.956055Z" fill="#717171"/>
</svg>
