<svg width="14" height="17" viewBox="0 0 14 17" fill="none" xmlns="http://www.w3.org/2000/svg">
<path d="M7.83987 16.1227C6.58831 16.1227 5.60393 15.9023 4.88674 15.4617C4.16956 15.0258 3.81096 14.4164 3.81096 13.6336V12.9375L4.68284 13.7039L3.38909 13.8445C2.7469 13.9148 2.21721 13.7859 1.80002 13.4578C1.38752 13.1344 1.18127 12.6398 1.18127 11.9742V10.8844C0.796899 10.8 0.50393 10.6289 0.302367 10.3711C0.100805 10.1133 2.37185e-05 9.81329 2.37185e-05 9.4711C2.37185e-05 9.0961 0.112524 8.71172 0.337524 8.31797L1.20237 6.7711C1.19299 6.68672 1.18596 6.60235 1.18127 6.51797C1.18127 6.4336 1.18127 6.34219 1.18127 6.24376C1.18127 5.31094 1.32659 4.46251 1.61721 3.69844C1.91252 2.92969 2.33206 2.2711 2.87581 1.72266C3.42424 1.16954 4.07815 0.745318 4.83752 0.450006C5.5969 0.150006 6.43831 5.59166e-06 7.36174 5.59166e-06C8.28987 5.59166e-06 9.13362 0.152349 9.89299 0.457037C10.6571 0.761724 11.3133 1.19532 11.8617 1.75782C12.4102 2.32032 12.8321 2.99297 13.1274 3.77579C13.4274 4.5586 13.5774 5.42813 13.5774 6.38438C13.5774 7.19532 13.4321 7.95469 13.1414 8.66251C12.8508 9.36563 12.4453 9.95391 11.925 10.4273V13.6336C11.925 14.4164 11.5594 15.0258 10.8281 15.4617C10.1016 15.9023 9.10549 16.1227 7.83987 16.1227ZM7.83987 14.8008C8.69768 14.8008 9.37034 14.6766 9.85784 14.4281C10.35 14.1797 10.5961 13.8469 10.5961 13.4297V9.75938C11.1117 9.45469 11.5149 9.00001 11.8055 8.39532C12.1008 7.79063 12.2485 7.12032 12.2485 6.38438C12.2485 5.37188 12.0446 4.48594 11.6367 3.72657C11.2289 2.96719 10.6594 2.37891 9.92815 1.96172C9.1969 1.53985 8.34143 1.32891 7.36174 1.32891C6.39143 1.32891 5.54065 1.53282 4.8094 1.94063C4.08284 2.34844 3.51565 2.92032 3.10784 3.65626C2.70471 4.38751 2.50315 5.24297 2.50315 6.22266C2.50315 6.3586 2.50784 6.49454 2.51721 6.63047C2.53127 6.76641 2.55002 6.90001 2.57346 7.03126L1.55393 8.86641C1.45549 9.04454 1.40627 9.2086 1.40627 9.3586C1.40627 9.50391 1.45549 9.61876 1.55393 9.70313C1.65237 9.78751 1.79534 9.82969 1.98284 9.82969H2.30627C2.36721 9.82969 2.41409 9.8461 2.4469 9.87891C2.4844 9.91172 2.50315 9.95626 2.50315 10.0125V11.8758C2.50315 12.1195 2.56409 12.2953 2.68596 12.4031C2.81252 12.5063 2.99534 12.5461 3.2344 12.5227L4.82346 12.3469C4.89846 12.3375 4.9594 12.3539 5.00627 12.3961C5.05784 12.4383 5.08362 12.4969 5.08362 12.5719V13.4297C5.08362 13.8469 5.32737 14.1797 5.81487 14.4281C6.30237 14.6766 6.97737 14.8008 7.83987 14.8008ZM5.13284 7.13672C4.63127 7.13672 4.22581 6.96329 3.91643 6.61641C3.60706 6.26485 3.45237 5.82891 3.45237 5.3086C3.45237 5.10704 3.48049 4.91251 3.53674 4.72501C3.59768 4.53751 3.68206 4.36407 3.78987 4.20469C3.89299 4.37813 4.03831 4.51876 4.22581 4.62657C4.41799 4.73438 4.63596 4.78829 4.87971 4.78829C4.97346 4.78829 5.05315 4.75547 5.11877 4.68985C5.18909 4.61954 5.22424 4.53985 5.22424 4.45079C5.22424 4.36172 5.19143 4.28438 5.12581 4.21876C5.06018 4.15313 4.97815 4.12032 4.87971 4.12032C4.71096 4.12032 4.57268 4.05938 4.46487 3.93751C4.35706 3.81563 4.30315 3.66329 4.30315 3.48047C4.30315 3.19922 4.42502 2.95313 4.66877 2.74219C4.91721 2.52657 5.24065 2.41876 5.63909 2.41876C5.7469 2.41876 5.84534 2.42813 5.9344 2.44688C5.90627 2.52657 5.87815 2.61094 5.85002 2.70001C5.82659 2.78907 5.81252 2.89219 5.80784 3.00938C5.80784 3.11251 5.83596 3.19688 5.89221 3.26251C5.95315 3.32813 6.03518 3.36094 6.13831 3.36094C6.23206 3.36094 6.3094 3.33047 6.37034 3.26954C6.43596 3.2086 6.46877 3.12891 6.46877 3.03047C6.46877 2.74922 6.56721 2.52188 6.76409 2.34844C6.96565 2.17501 7.21877 2.08829 7.52346 2.08829C7.69221 2.08829 7.86331 2.13047 8.03674 2.21485C8.21487 2.29454 8.3719 2.40704 8.50784 2.55235C8.54534 2.54766 8.58752 2.54532 8.6344 2.54532C8.68127 2.54063 8.75862 2.53829 8.86643 2.53829C9.22737 2.5336 9.53674 2.66016 9.79456 2.91797C10.0524 3.1711 10.1813 3.48047 10.1813 3.8461C10.1813 4.15079 10.0969 4.41094 9.92815 4.62657C9.76409 4.84219 9.56018 5.04141 9.31643 5.22422C9.07268 5.40235 8.82659 5.58751 8.57815 5.77969C8.3344 5.96719 8.12815 6.18516 7.9594 6.4336C7.79534 6.67735 7.71331 6.97266 7.71331 7.31954C7.71331 7.41797 7.72502 7.50938 7.74846 7.59376C7.66409 7.60782 7.58206 7.61954 7.50237 7.62891C7.42268 7.6336 7.34768 7.63594 7.27737 7.63594C7.08987 7.63594 6.9094 7.61719 6.73596 7.57969C6.56721 7.54219 6.41018 7.4836 6.26487 7.40391C6.49456 7.26797 6.67502 7.08516 6.80627 6.85547C6.94221 6.62579 7.01252 6.36563 7.01721 6.07501C7.01721 5.93438 7.00315 5.81016 6.97502 5.70235C7.66877 5.52422 8.01565 5.06719 8.01565 4.33126C8.01565 4.24219 7.98049 4.16485 7.91018 4.09922C7.84456 4.0336 7.76487 4.00079 7.67112 4.00079C7.58206 4.00079 7.50471 4.0336 7.43909 4.09922C7.37815 4.16485 7.34768 4.24454 7.34768 4.33829C7.34768 4.7836 7.1344 5.04141 6.70784 5.11172C6.69377 5.08829 6.67737 5.06016 6.65862 5.02735C6.63987 4.99454 6.61877 4.96876 6.59534 4.95001C6.55315 4.91251 6.50862 4.88672 6.46174 4.87266C6.41487 4.8586 6.37034 4.85157 6.32815 4.85157C6.23909 4.85157 6.16174 4.88204 6.09612 4.94297C6.03518 5.00391 6.00471 5.07657 6.00471 5.16094C6.00471 5.26407 6.05627 5.36719 6.1594 5.47032C6.29534 5.61094 6.36331 5.79376 6.36331 6.01876C6.36331 6.34219 6.24846 6.60938 6.01877 6.82032C5.78909 7.03126 5.49377 7.13672 5.13284 7.13672ZM10.0266 8.90157C9.78284 8.90157 9.56956 8.81016 9.38674 8.62735C9.20862 8.44454 9.09377 8.20547 9.04221 7.91016H8.95081C8.74924 7.91016 8.59221 7.85391 8.47971 7.74141C8.36721 7.62422 8.31096 7.47657 8.31096 7.29844C8.31096 7.04532 8.38831 6.82501 8.54299 6.63751C8.69768 6.45001 8.88987 6.27188 9.11956 6.10313C9.35393 5.93438 9.59065 5.75626 9.82971 5.56876C10.0735 5.37657 10.2844 5.15626 10.4625 4.90782C10.6453 4.65469 10.7555 4.35001 10.793 3.99376C11.018 4.12969 11.1938 4.31016 11.3203 4.53516C11.4469 4.76016 11.5102 5.01094 11.5102 5.28751C11.5102 5.59219 11.4071 5.8336 11.2008 6.01172C10.9946 6.18985 10.7227 6.26719 10.3852 6.24376C10.2961 6.22969 10.2164 6.25782 10.1461 6.32813C10.0805 6.39376 10.0477 6.47344 10.0477 6.56719C10.0477 6.65626 10.0781 6.73126 10.1391 6.79219C10.2 6.85313 10.2774 6.89063 10.3711 6.90469C10.6899 6.92344 10.9735 6.88126 11.2219 6.77813C11.2219 6.82032 11.2219 6.86251 11.2219 6.90469C11.2219 6.94219 11.2219 6.98204 11.2219 7.02422C11.2219 7.57735 11.1094 8.02969 10.8844 8.38126C10.6594 8.72813 10.3735 8.90157 10.0266 8.90157Z" fill="white"/>
</svg>
