<svg width="22" height="20" viewBox="0 0 22 20" fill="none" xmlns="http://www.w3.org/2000/svg">
<path d="M3.16895 19.4541C1.07422 19.4541 0 18.3906 0 16.3174V3.14746C0 1.06348 1.07422 0 3.16895 0H18.1113C20.2061 0 21.2803 1.07422 21.2803 3.14746V16.3174C21.2803 18.3799 20.2061 19.4541 18.1113 19.4541H3.16895ZM3.07227 18.1221H18.1973C19.3037 18.1221 19.9482 17.5312 19.9482 16.3711V6.54199C19.9482 5.38184 19.3037 4.78027 18.1973 4.78027H3.07227C1.94434 4.78027 1.33203 5.38184 1.33203 6.54199V16.3711C1.33203 17.5312 1.94434 18.1221 3.07227 18.1221ZM8.50781 8.60449C8.16406 8.60449 8.07812 8.51855 8.07812 8.18555V7.55176C8.07812 7.21875 8.16406 7.13281 8.50781 7.13281H9.1416C9.47461 7.13281 9.57129 7.21875 9.57129 7.55176V8.18555C9.57129 8.51855 9.47461 8.60449 9.1416 8.60449H8.50781ZM12.1494 8.60449C11.8164 8.60449 11.7197 8.51855 11.7197 8.18555V7.55176C11.7197 7.21875 11.8164 7.13281 12.1494 7.13281H12.7832C13.1162 7.13281 13.2129 7.21875 13.2129 7.55176V8.18555C13.2129 8.51855 13.1162 8.60449 12.7832 8.60449H12.1494ZM15.791 8.60449C15.458 8.60449 15.3613 8.51855 15.3613 8.18555V7.55176C15.3613 7.21875 15.458 7.13281 15.791 7.13281H16.4248C16.7578 7.13281 16.8545 7.21875 16.8545 7.55176V8.18555C16.8545 8.51855 16.7578 8.60449 16.4248 8.60449H15.791ZM4.86621 12.1816C4.52246 12.1816 4.43652 12.1064 4.43652 11.7734V11.1396C4.43652 10.8066 4.52246 10.7207 4.86621 10.7207H5.5C5.83301 10.7207 5.92969 10.8066 5.92969 11.1396V11.7734C5.92969 12.1064 5.83301 12.1816 5.5 12.1816H4.86621ZM8.50781 12.1816C8.16406 12.1816 8.07812 12.1064 8.07812 11.7734V11.1396C8.07812 10.8066 8.16406 10.7207 8.50781 10.7207H9.1416C9.47461 10.7207 9.57129 10.8066 9.57129 11.1396V11.7734C9.57129 12.1064 9.47461 12.1816 9.1416 12.1816H8.50781ZM12.1494 12.1816C11.8164 12.1816 11.7197 12.1064 11.7197 11.7734V11.1396C11.7197 10.8066 11.8164 10.7207 12.1494 10.7207H12.7832C13.1162 10.7207 13.2129 10.8066 13.2129 11.1396V11.7734C13.2129 12.1064 13.1162 12.1816 12.7832 12.1816H12.1494ZM15.791 12.1816C15.458 12.1816 15.3613 12.1064 15.3613 11.7734V11.1396C15.3613 10.8066 15.458 10.7207 15.791 10.7207H16.4248C16.7578 10.7207 16.8545 10.8066 16.8545 11.1396V11.7734C16.8545 12.1064 16.7578 12.1816 16.4248 12.1816H15.791ZM4.86621 15.7695C4.52246 15.7695 4.43652 15.6943 4.43652 15.3613V14.7275C4.43652 14.3945 4.52246 14.3086 4.86621 14.3086H5.5C5.83301 14.3086 5.92969 14.3945 5.92969 14.7275V15.3613C5.92969 15.6943 5.83301 15.7695 5.5 15.7695H4.86621ZM8.50781 15.7695C8.16406 15.7695 8.07812 15.6943 8.07812 15.3613V14.7275C8.07812 14.3945 8.16406 14.3086 8.50781 14.3086H9.1416C9.47461 14.3086 9.57129 14.3945 9.57129 14.7275V15.3613C9.57129 15.6943 9.47461 15.7695 9.1416 15.7695H8.50781ZM12.1494 15.7695C11.8164 15.7695 11.7197 15.6943 11.7197 15.3613V14.7275C11.7197 14.3945 11.8164 14.3086 12.1494 14.3086H12.7832C13.1162 14.3086 13.2129 14.3945 13.2129 14.7275V15.3613C13.2129 15.6943 13.1162 15.7695 12.7832 15.7695H12.1494Z" fill="#717171"/>
</svg>
