<svg width="16" height="17" viewBox="0 0 16 17" fill="none" xmlns="http://www.w3.org/2000/svg">
<path d="M7.03125 9.73438L5.41406 10.3594C5.30469 10.401 5.20573 10.3802 5.11719 10.2969C5.03385 10.2083 5.01562 10.1094 5.0625 10L5.71094 8.40625L12.3906 1.73438L13.7188 3.0625L7.03125 9.73438ZM14.2734 2.50781L12.9453 1.17969L13.5938 0.53125C13.7604 0.369792 13.9505 0.28125 14.1641 0.265625C14.3828 0.25 14.5677 0.315104 14.7188 0.460938L14.9375 0.679688C15.1094 0.841146 15.1901 1.03385 15.1797 1.25781C15.1693 1.48177 15.0807 1.67969 14.9141 1.85156L14.2734 2.50781ZM0 6.60938C0 5.67188 0.153646 4.80208 0.460938 4C0.768229 3.19792 1.21094 2.4974 1.78906 1.89844C2.36719 1.29948 3.0599 0.833333 3.86719 0.5C4.67448 0.166667 5.57812 0 6.57812 0C7.35417 0 8.1276 0.117188 8.89844 0.351562C9.66927 0.585938 10.4036 0.911458 11.1016 1.32812L10.0391 2.39062C9.49219 2.07812 8.91406 1.83594 8.30469 1.66406C7.70052 1.49219 7.09115 1.40625 6.47656 1.40625C5.45052 1.40625 4.55469 1.63021 3.78906 2.07812C3.02865 2.52604 2.4401 3.13802 2.02344 3.91406C1.61198 4.6901 1.40625 5.57292 1.40625 6.5625C1.40625 7.23958 1.50521 7.92708 1.70312 8.625C1.90104 9.31771 2.20052 9.98958 2.60156 10.6406C3.00781 11.2917 3.51302 11.8958 4.11719 12.4531C4.72135 13.0052 5.42969 13.4844 6.24219 13.8906C7.05469 14.2969 7.97396 14.5938 9 14.7812C9.21354 14.8281 9.375 14.9115 9.48438 15.0312C9.59896 15.1562 9.65625 15.3125 9.65625 15.5C9.65625 15.651 9.61719 15.7786 9.53906 15.8828C9.46094 15.9922 9.35417 16.0703 9.21875 16.1172C9.08854 16.1641 8.9401 16.1719 8.77344 16.1406C7.90365 16.0469 7.04427 15.8177 6.19531 15.4531C5.34635 15.0938 4.54948 14.6224 3.80469 14.0391C3.0651 13.4557 2.40885 12.7812 1.83594 12.0156C1.26302 11.25 0.8125 10.4115 0.484375 9.5C0.161458 8.58854 0 7.625 0 6.60938ZM15.7188 8.86719C15.7188 9.76823 15.5234 10.5625 15.1328 11.25C14.7474 11.9375 14.2109 12.4766 13.5234 12.8672C12.8411 13.2526 12.0495 13.4453 11.1484 13.4453C10.2682 13.4453 9.38021 13.2604 8.48438 12.8906C7.58854 12.5156 6.79427 12.0052 6.10156 11.3594L7.625 10.7422C8.13542 11.1693 8.69271 11.5104 9.29688 11.7656C9.90104 12.0156 10.4974 12.1406 11.0859 12.1406C11.6849 12.1406 12.2318 12.0052 12.7266 11.7344C13.2214 11.4635 13.6146 11.0833 13.9062 10.5938C14.2031 10.1042 14.3516 9.52344 14.3516 8.85156C14.3516 8.23698 14.2448 7.6276 14.0312 7.02344C13.8229 6.41927 13.5365 5.84115 13.1719 5.28906L14.2109 4.25C14.6797 4.92188 15.0469 5.64844 15.3125 6.42969C15.5833 7.21094 15.7188 8.02344 15.7188 8.86719Z" fill="#0D0D0D"/>
</svg>
