<svg width="14" height="3" viewBox="0 0 14 3" fill="none" xmlns="http://www.w3.org/2000/svg">
<path d="M1.42969 2.85156C1.16406 2.85156 0.921875 2.78906 0.703125 2.66406C0.489583 2.53385 0.317708 2.36198 0.1875 2.14844C0.0625 1.9349 0 1.69531 0 1.42969C0 1.16406 0.0625 0.924479 0.1875 0.710938C0.317708 0.492188 0.489583 0.320312 0.703125 0.195312C0.921875 0.0651042 1.16406 0 1.42969 0C1.83073 0 2.16927 0.140625 2.44531 0.421875C2.72656 0.697917 2.86719 1.03385 2.86719 1.42969C2.86719 1.69531 2.80208 1.9349 2.67188 2.14844C2.54688 2.36198 2.375 2.53385 2.15625 2.66406C1.9375 2.78906 1.69531 2.85156 1.42969 2.85156ZM6.82812 2.85156C6.5625 2.85156 6.32292 2.78906 6.10938 2.66406C5.89583 2.53385 5.72396 2.36198 5.59375 2.14844C5.46875 1.9349 5.40625 1.69531 5.40625 1.42969C5.40625 1.16406 5.46875 0.924479 5.59375 0.710938C5.72396 0.492188 5.89583 0.320312 6.10938 0.195312C6.32292 0.0651042 6.5625 0 6.82812 0C7.21875 0 7.55208 0.140625 7.82812 0.421875C8.10938 0.697917 8.25 1.03385 8.25 1.42969C8.25 1.69531 8.1849 1.9349 8.05469 2.14844C7.92448 2.36198 7.7526 2.53385 7.53906 2.66406C7.32552 2.78906 7.08854 2.85156 6.82812 2.85156ZM12.2188 2.85156C11.9531 2.85156 11.7109 2.78906 11.4922 2.66406C11.2734 2.53385 11.099 2.36198 10.9688 2.14844C10.8438 1.9349 10.7812 1.69531 10.7812 1.42969C10.7812 1.16406 10.8438 0.924479 10.9688 0.710938C11.099 0.492188 11.2734 0.320312 11.4922 0.195312C11.7109 0.0651042 11.9531 0 12.2188 0C12.6146 0 12.9505 0.140625 13.2266 0.421875C13.5078 0.697917 13.6484 1.03385 13.6484 1.42969C13.6484 1.69531 13.5833 1.9349 13.4531 2.14844C13.3281 2.36198 13.1562 2.53385 12.9375 2.66406C12.724 2.78906 12.4844 2.85156 12.2188 2.85156Z" fill="#0D0D0D"/>
</svg>
