<svg width="16" height="16" viewBox="0 0 16 16" fill="none" xmlns="http://www.w3.org/2000/svg">
<path d="M9.28906 15.5625C8.9401 15.5625 8.6849 15.4401 8.52344 15.1953C8.36198 14.9505 8.22656 14.6406 8.11719 14.2656L6.57031 8.99219L1.24219 7.42969C0.882812 7.32031 0.585938 7.1875 0.351562 7.03125C0.117188 6.86979 0 6.61719 0 6.27344C0 5.99219 0.104167 5.75521 0.3125 5.5625C0.526042 5.36458 0.791667 5.20573 1.10938 5.08594L13.8672 0.203125C14.0391 0.135417 14.1979 0.0859375 14.3438 0.0546875C14.4896 0.0182292 14.625 0 14.75 0C15 0 15.1979 0.0729167 15.3438 0.21875C15.4948 0.364583 15.5703 0.565104 15.5703 0.820312C15.5703 0.945312 15.5521 1.08073 15.5156 1.22656C15.4792 1.3724 15.4297 1.52865 15.3672 1.69531L10.5 14.3984C10.3646 14.7526 10.1979 15.0339 10 15.2422C9.80208 15.4557 9.5651 15.5625 9.28906 15.5625ZM6.94531 7.75781L11.7344 2.97656C11.9427 2.76823 12.1901 2.54688 12.4766 2.3125C12.763 2.07292 13.0339 1.85156 13.2891 1.64844C12.987 1.78385 12.6849 1.92448 12.3828 2.07031C12.0859 2.21094 11.7865 2.33854 11.4844 2.45312L2.07812 6.03125C2.02604 6.05208 1.99219 6.07292 1.97656 6.09375C1.96094 6.10938 1.95312 6.13021 1.95312 6.15625C1.95312 6.18229 1.96094 6.20573 1.97656 6.22656C1.9974 6.24219 2.03906 6.25781 2.10156 6.27344L6.94531 7.75781ZM9.41406 13.625C9.4401 13.625 9.46094 13.6146 9.47656 13.5938C9.4974 13.5729 9.51823 13.5391 9.53906 13.4922L13.1094 4.08594C13.2292 3.77865 13.3594 3.47396 13.5 3.17188C13.6458 2.86979 13.7891 2.5651 13.9297 2.25781C13.7214 2.51302 13.4974 2.78906 13.2578 3.08594C13.0182 3.3776 12.7943 3.6276 12.5859 3.83594L7.80469 8.61719L9.29688 13.4688C9.3125 13.526 9.32812 13.5651 9.34375 13.5859C9.35938 13.612 9.38281 13.625 9.41406 13.625Z" fill="#0D0D0D"/>
</svg>
