<svg width="13" height="16" viewBox="0 0 13 16" fill="none" xmlns="http://www.w3.org/2000/svg">
<path d="M3.53906 4.39062C3.40365 4.39062 3.28906 4.34635 3.19531 4.25781C3.10677 4.16927 3.0625 4.05729 3.0625 3.92188C3.0625 3.79688 3.10677 3.6901 3.19531 3.60156C3.28906 3.51302 3.40365 3.46875 3.53906 3.46875H9.03906C9.16927 3.46875 9.27865 3.51302 9.36719 3.60156C9.45573 3.6901 9.5 3.79688 9.5 3.92188C9.5 4.05729 9.45573 4.16927 9.36719 4.25781C9.27865 4.34635 9.16927 4.39062 9.03906 4.39062H3.53906ZM3.53906 6.94531C3.40365 6.94531 3.28906 6.90104 3.19531 6.8125C3.10677 6.71875 3.0625 6.60677 3.0625 6.47656C3.0625 6.34635 3.10677 6.23958 3.19531 6.15625C3.28906 6.06771 3.40365 6.02344 3.53906 6.02344H9.03906C9.16927 6.02344 9.27865 6.06771 9.36719 6.15625C9.45573 6.23958 9.5 6.34635 9.5 6.47656C9.5 6.60677 9.45573 6.71875 9.36719 6.8125C9.27865 6.90104 9.16927 6.94531 9.03906 6.94531H3.53906ZM3.53906 9.49219C3.40365 9.49219 3.28906 9.45052 3.19531 9.36719C3.10677 9.27865 3.0625 9.16927 3.0625 9.03906C3.0625 8.90885 3.10677 8.79948 3.19531 8.71094C3.28906 8.61719 3.40365 8.57031 3.53906 8.57031H6.16406C6.29948 8.57031 6.41146 8.61719 6.5 8.71094C6.58854 8.79948 6.63281 8.90885 6.63281 9.03906C6.63281 9.16927 6.58854 9.27865 6.5 9.36719C6.41146 9.45052 6.29948 9.49219 6.16406 9.49219H3.53906ZM0 13.5547V2.375C0 1.58854 0.197917 0.997396 0.59375 0.601562C0.989583 0.200521 1.57552 0 2.35156 0H10.2109C10.9922 0 11.5781 0.200521 11.9688 0.601562C12.3646 0.997396 12.5625 1.58854 12.5625 2.375V13.5547C12.5625 14.3411 12.3646 14.9323 11.9688 15.3281C11.5781 15.724 10.9922 15.9219 10.2109 15.9219H2.35156C1.57552 15.9219 0.989583 15.724 0.59375 15.3281C0.197917 14.9323 0 14.3411 0 13.5547ZM1.33594 13.4922C1.33594 13.8516 1.42708 14.125 1.60938 14.3125C1.79688 14.5052 2.07552 14.6016 2.44531 14.6016H10.1172C10.487 14.6016 10.7656 14.5052 10.9531 14.3125C11.1406 14.125 11.2344 13.8516 11.2344 13.4922V2.4375C11.2344 2.07812 11.1406 1.80469 10.9531 1.61719C10.7656 1.42969 10.487 1.33594 10.1172 1.33594H2.44531C2.07552 1.33594 1.79688 1.42969 1.60938 1.61719C1.42708 1.80469 1.33594 2.07812 1.33594 2.4375V13.4922Z" fill="#0D0D0D"/>
</svg>
